<svg xmlns="http://www.w3.org/2000/svg" height="1200" width="1600" version="1.1" xmlns:xlink="http://www.w3.org/1999/xlink" xmlns:svgjs="http://svgjs.com/svgjs"><rect fill="#effaff" width="1600" height="1200"></rect><g><path d="M540.49 315.42L566.94 341.87 540.49 368.32V353.39H488V330.24H540.49V315.42Z" fill="#46cdcf" stroke="#333333" stroke-width="2" stroke-linecap="round" stroke-linejoin="round" opacity="1"></path></g><g><path d="M1057.1 313.55L1028.55 342.1 1057.1 370.66V354.55H1113.76V329.55H1057.1V313.55Z" fill="#46cdcf" stroke="#333333" stroke-width="2" stroke-linecap="round" stroke-linejoin="round" opacity="1"></path></g><g><path d="M860.49 418.88L880.72 439.88 900.42 418.88V317.74H860.49V418.88Z" fill="#abedd8" stroke="#333333" stroke-width="2" stroke-linecap="round" stroke-linejoin="round" opacity="1"></path><path d="M952.81 439.88L808.62 439.88" stroke="#333333" stroke-width="2" stroke-linecap="round" stroke-linejoin="round" opacity="1" fill="none"></path><path d="M875.27 455.18C875.27 461.41 885.64 461.41 885.64 468.15 885.64 474.89 875.27 474.37 875.27 481.12 875.27 487.34 885.64 487.34 885.64 494.08 885.64 500.31 875.27 500.31 875.27 507.05 875.27 513.27 885.64 513.27 885.64 520.01" stroke="#333333" stroke-width="2" stroke-linecap="round" stroke-linejoin="round" opacity="1" fill="none"></path><path d="M875.27 455.18C875.27 461.41 885.64 461.41 885.64 468.15 885.64 474.89 875.27 474.37 875.27 481.12 875.27 487.34 885.64 487.34 885.64 494.08 885.64 500.31 875.27 500.31 875.27 507.05 875.27 513.27 885.64 513.27 885.64 520.01" stroke="#333333" stroke-width="2" stroke-linecap="round" stroke-linejoin="round" opacity="1" fill="none"></path><path d="M747.16 254.47C738.71 254.47 731.86 247.62 731.86 239.17 731.86 230.71 738.71 223.87 747.16 223.87 755.62 223.87 762.46 230.71 762.46 239.17 762.46 247.62 755.62 254.47 747.16 254.47Z" fill="#46cdcf" stroke="#333333" stroke-width="2" stroke-linecap="round" stroke-linejoin="round" opacity="1"></path><path d="M681.3 223.87H711.38V253.95H681.3V223.87Z" fill="#46cdcf" stroke="#333333" stroke-width="2" stroke-linecap="round" stroke-linejoin="round" opacity="1"></path><path d="M709.04 320.85H681.3" stroke="#333333" stroke-width="2" stroke-linecap="round" stroke-linejoin="round" opacity="1" fill="none"></path><path d="M757.28 320.85H723.83" stroke="#333333" stroke-width="2" stroke-linecap="round" stroke-linejoin="round" opacity="1" fill="none"></path><path d="M757.28 350.94H681.3" stroke="#333333" stroke-width="2" stroke-linecap="round" stroke-linejoin="round" opacity="1" fill="none"></path><path d="M757.28 380.5H681.3" stroke="#333333" stroke-width="2" stroke-linecap="round" stroke-linejoin="round" opacity="1" fill="none"></path><path d="M694.78 410.32H681.3" stroke="#333333" stroke-width="2" stroke-linecap="round" stroke-linejoin="round" opacity="1" fill="none"></path><path d="M724.6 410.32H707.23" stroke="#333333" stroke-width="2" stroke-linecap="round" stroke-linejoin="round" opacity="1" fill="none"></path><path d="M757.28 410.32H739.38" stroke="#333333" stroke-width="2" stroke-linecap="round" stroke-linejoin="round" opacity="1" fill="none"></path><path d="M757.28 439.88H681.3" stroke="#333333" stroke-width="2" stroke-linecap="round" stroke-linejoin="round" opacity="1" fill="none"></path><path d="M902.5 257.84L921.43 239.17 902.5 219.98" stroke="#333333" stroke-width="2" stroke-linecap="round" stroke-linejoin="round" opacity="1" fill="none"></path><path d="M858.41 219.98L839.48 239.17 858.41 257.84" stroke="#333333" stroke-width="2" stroke-linecap="round" stroke-linejoin="round" opacity="1" fill="none"></path><path d="M872.16 219.98L889.27 257.84" stroke="#333333" stroke-width="2" stroke-linecap="round" stroke-linejoin="round" opacity="1" fill="none"></path></g><g><path d="M1152.27 292.62C1140.79 304 1133.67 319.84 1133.67 337.28 1133.67 372.04 1161.84 400.11 1196.5 400.11 1231.27 400.11 1259.33 371.94 1259.33 337.28 1259.33 302.62 1231.16 274.44 1196.5 274.44 1185.34 274.44 1174.81 277.32 1165.78 282.52" fill="#78c7e0" opacity="1" stroke-width="2" stroke="none"></path><path d="M1152.27 292.62C1140.79 304 1133.67 319.84 1133.67 337.28 1133.67 372.04 1161.84 400.11 1196.5 400.11 1231.27 400.11 1259.33 371.94 1259.33 337.28 1259.33 302.62 1231.16 274.44 1196.5 274.44 1185.34 274.44 1174.81 277.32 1165.78 282.52" stroke="#333333" stroke-width="2" stroke-linecap="round" stroke-linejoin="round" opacity="1" fill="none"></path><path d="M1196.5 400.11V421.16C1196.5 435.83 1184.59 447.74 1169.92 447.74H1160.46" stroke="#333333" stroke-width="2" stroke-linecap="round" stroke-linejoin="round" opacity="1" fill="none"></path><path d="M1205.54 346.42H1170.67C1165.99 346.42 1162.16 350.25 1162.16 354.93 1162.16 359.6 1165.99 363.43 1170.67 363.43H1194.69" stroke="#333333" stroke-width="2" stroke-linecap="round" stroke-linejoin="round" opacity="1" fill="none"></path><path d="M1192.04 325.05H1223.72C1229.67 325.05 1234.46 329.84 1234.46 335.79 1234.46 341.74 1229.67 346.53 1223.72 346.53H1214.26" stroke="#333333" stroke-width="2" stroke-linecap="round" stroke-linejoin="round" opacity="1" fill="none"></path><path d="M1157.48 228.2L1192.74 308.98 1179.78 314.63 1144.52 233.85 1157.48 228.2Z" fill="#46cdcf" stroke="#333333" stroke-width="2" stroke-linecap="round" stroke-linejoin="round" opacity="1"></path><path d="M1192.04 325.05L1192.67 309.1 1179.81 314.74 1192.04 325.05Z" fill="#46cdcf" stroke="#333333" stroke-width="2" stroke-linecap="round" stroke-linejoin="round" opacity="1"></path></g><g><path d="M1199.96 767.6V660.16C1199.96 646.8 1194.37 633.98 1184.55 624.71L1172.82 613.8C1163.96 605.62 1159.05 594.03 1159.05 582.03 1159.05 564.45 1144.74 550.27 1127.28 550.27H1109.42C1091.83 550.27 1077.65 564.58 1077.65 582.03 1077.65 594.03 1072.61 605.62 1063.88 613.8L1052.16 624.71C1042.34 633.85 1036.75 646.66 1036.75 660.16V830.32H1010.16C1004.16 830.32 999.12 834.96 998.98 840.96 998.85 847.09 1003.75 852 1009.89 852H1036.89 1167.78C1185.64 852 1200.09 837.55 1200.09 819.69V778.37" fill="#78c7e0" opacity="1" stroke-width="2" stroke="none"></path><path d="M1199.96 767.6V660.16C1199.96 646.8 1194.37 633.98 1184.55 624.71L1172.82 613.8C1163.96 605.62 1159.05 594.03 1159.05 582.03 1159.05 564.45 1144.74 550.27 1127.28 550.27H1109.42C1091.83 550.27 1077.65 564.58 1077.65 582.03 1077.65 594.03 1072.61 605.62 1063.88 613.8L1052.16 624.71C1042.34 633.85 1036.75 646.66 1036.75 660.16V830.32H1010.16C1004.16 830.32 999.12 834.96 998.98 840.96 998.85 847.09 1003.75 852 1009.89 852H1036.89 1167.78C1185.64 852 1200.09 837.55 1200.09 819.69V778.37" stroke="#333333" stroke-width="2" stroke-linecap="round" stroke-linejoin="round" opacity="1" fill="none"></path><path d="M1036.75 830.18H1130.69" stroke="#333333" stroke-width="2" stroke-linecap="round" stroke-linejoin="round" opacity="1" fill="none"></path><path d="M1137.65 830.18H1160.69" stroke="#333333" stroke-width="2" stroke-linecap="round" stroke-linejoin="round" opacity="1" fill="none"></path><path d="M1083.65 979.35H1152.92C1161.37 979.35 1168.19 986.16 1168.19 994.62H1068.52C1068.52 986.16 1075.34 979.35 1083.65 979.35Z" fill="#78c7e0" stroke="#333333" stroke-width="2" stroke-linecap="round" stroke-linejoin="round" opacity="1"></path><path d="M1118.28 945.4V852" stroke="#333333" stroke-width="2" stroke-linecap="round" stroke-linejoin="round" opacity="1" fill="none"></path><path d="M1118.28 979.35V952.08" stroke="#333333" stroke-width="2" stroke-linecap="round" stroke-linejoin="round" opacity="1" fill="none"></path><path d="M1177.32 668.07V656.89" stroke="#333333" stroke-width="2" stroke-linecap="round" stroke-linejoin="round" opacity="1" fill="none"></path><path d="M1177.32 711.02V677.89" stroke="#333333" stroke-width="2" stroke-linecap="round" stroke-linejoin="round" opacity="1" fill="none"></path></g><g><path d="M1017.58 568.17L972.28 632.33H903.43L961.27 549.5 1017.58 568.17Z" fill="#ffffff" stroke="#333333" stroke-width="2" stroke-linecap="round" stroke-linejoin="round" opacity="1"></path><path d="M1010.01 632.33H1155.57L1164.38 651.57V994.77H1002.35V651.57L1010.01 632.33Z" fill="#48466d" stroke="#333333" stroke-width="2" stroke-linecap="round" stroke-linejoin="round" opacity="1"></path><path d="M1083.36 943.83V730.96" stroke="#333333" stroke-width="2" stroke-linecap="round" stroke-linejoin="round" opacity="1" fill="none"></path><path d="M1164.38 618.92V651.57H1002.35V574.01L1164.38 574.97V610.4" fill="#ffffff" opacity="1" stroke-width="2" stroke="none"></path><path d="M1164.38 618.92V651.57H1002.35V574.01L1164.38 574.97V610.4" stroke="#333333" stroke-width="2" stroke-linecap="round" stroke-linejoin="round" opacity="1" fill="none"></path><path d="M1100.12 444.35C1135.55 444.35 1164.28 473.08 1164.28 508.51V593.64H1015.76C995.75 593.64 975.92 589.14 957.83 580.52L853.74 530.92 883.33 478.54 972.19 520.48V475.57C972.19 458.33 982.34 444.35 1003.41 444.35H1100.12V444.35Z" fill="#ffffff" stroke="#333333" stroke-width="2" stroke-linecap="round" stroke-linejoin="round" opacity="1"></path><path d="M1085.85 418.21C1041.9 389.58 1006.95 426.45 1006.95 426.45 1004.75 432 1003.5 438.03 1003.5 444.35 1003.5 471.07 1025.14 492.71 1051.86 492.71 1074.75 492.71 1093.99 476.72 1098.97 455.36 1100.12 432.77 1094.57 423.86 1085.85 418.21Z" fill="#ffffff" stroke="#333333" stroke-width="2" stroke-linecap="round" stroke-linejoin="round" opacity="1"></path><path d="M1096.77 426.45C1089.68 408.63 1072.26 395.99 1051.86 395.99 1031.46 395.99 1014.04 408.63 1006.95 426.45H1088.63V443.78C1088.63 449.72 1093.13 454.6 1098.97 455.27 1099.83 451.73 1100.22 448.09 1100.22 444.35 1100.12 438.03 1098.97 432 1096.77 426.45Z" fill="#48466d" stroke="#333333" stroke-width="2" stroke-linecap="round" stroke-linejoin="round" opacity="1"></path><path d="M1028.4 426.45V452.88" stroke="#333333" stroke-width="2" stroke-linecap="round" stroke-linejoin="round" opacity="1" fill="none"></path><path d="M1041.04 452.88C1041.04 456.32 1038.26 459.2 1034.72 459.2 1031.18 459.2 1028.4 456.42 1028.4 452.88" stroke="#333333" stroke-width="2" stroke-linecap="round" stroke-linejoin="round" opacity="1" fill="none"></path><path d="M972.28 520.48L994.5 530.92H1105.77" stroke="#333333" stroke-width="2" stroke-linecap="round" stroke-linejoin="round" opacity="1" fill="none"></path><path d="M1105.68 530.92C1092.17 530.92 1081.26 520 1081.26 506.5" stroke="#333333" stroke-width="2" stroke-linecap="round" stroke-linejoin="round" opacity="1" fill="none"></path><path d="M1002.35 530.92V506.79" stroke="#333333" stroke-width="2" stroke-linecap="round" stroke-linejoin="round" opacity="1" fill="none"></path><path d="M1083.36 994.77V959.05" stroke="#333333" stroke-width="2" stroke-linecap="round" stroke-linejoin="round" opacity="1" fill="none"></path></g><g><path d="M920.48 755.67H525.95V729.21H1024.28V755.67H942.83" fill="#3d84a8" opacity="1" stroke-width="2" stroke="none"></path><path d="M920.48 755.67H525.95V729.21H1024.28V755.67H942.83" stroke="#333333" stroke-width="2" stroke-linecap="round" stroke-linejoin="round" opacity="1" fill="none"></path><path d="M982.72 755.67L1016.69 993.81" stroke="#333333" stroke-width="2" stroke-linecap="round" stroke-linejoin="round" opacity="1" fill="none"></path><path d="M567.51 755.67L533.55 993.81" stroke="#333333" stroke-width="2" stroke-linecap="round" stroke-linejoin="round" opacity="1" fill="none"></path></g><g><path d="M384.7 670.16L309.02 650.55 217.24 669.72 217.24 994.83H384.7L384.7 670.16Z" fill="#48466d" stroke="#333333" stroke-width="2" stroke-linecap="round" stroke-linejoin="round" opacity="1"></path><path d="M191.63 521.44C191.63 480.16 225.15 446.79 266.28 446.79H341.23C381.63 446.79 414.56 479.58 414.56 519.98V539.59 550.86 587.31C414.56 603.71 401.24 617.03 384.85 617.03L384.85 672.5H217.39V624.64C201.73 612.49 191.77 593.46 191.77 572.09V563.16 521.44H191.63Z" fill="#ffffff" stroke="#333333" stroke-width="2" stroke-linecap="round" stroke-linejoin="round" opacity="1"></path><path d="M342.54 489.82V503.87C356.74 503.87 368.16 492.46 368.16 478.26V465.52C344.15 465.52 342.54 476.21 342.54 489.82Z" fill="#48466d" stroke="#333333" stroke-width="2" stroke-linecap="round" stroke-linejoin="round" opacity="1"></path><path d="M368.16 423.37C384.85 458.2 356.16 498.46 317.07 493.19 293.07 489.97 276.53 470.21 274.77 448.4 274.04 440.2 296 423.37 300.09 423.37 300.09 423.37 305.95 413.41 308.88 411.22 315.76 405.95 336.1 402.58 347.67 406.39 353.52 408.14 368.16 423.37 368.16 423.37Z" fill="#ffffff" stroke="#333333" stroke-width="2" stroke-linecap="round" stroke-linejoin="round" opacity="1"></path><path d="M349.13 447.37V456.74" stroke="#333333" stroke-width="2" stroke-linecap="round" opacity="1" fill="none"></path><path d="M335.96 456.74C335.96 460.4 338.89 463.33 342.54 463.33 346.2 463.33 349.13 460.4 349.13 456.74" stroke="#333333" stroke-width="2" stroke-linecap="round" opacity="1" fill="none"></path><path d="M254.28 466.69V448.4C254.28 434.49 265.55 423.37 279.31 423.37 287.21 406.82 304.05 395.41 323.66 395.41 343.28 395.41 360.11 406.82 368.01 423.37H353.23C346.06 423.37 340.35 417.51 340.35 410.48 340.35 417.66 334.49 423.37 327.47 423.37L308.44 423.37V461.86C308.44 477.67 295.7 490.55 280.04 490.85V498.17C280.04 512.36 268.62 523.78 254.42 523.78H219.73L219.73 501.39C219.59 482.21 235.1 466.69 254.28 466.69Z" fill="#48466d" stroke="#333333" stroke-width="2" stroke-linecap="round" stroke-linejoin="round" opacity="1"></path><path d="M350.89 551.01H368.45" stroke="#333333" stroke-width="2" stroke-linecap="round" stroke-linejoin="round" opacity="1" fill="none"></path><path d="M243.01 551.01H274.92" stroke="#333333" stroke-width="2" stroke-linecap="round" stroke-linejoin="round" opacity="1" fill="none"></path><path d="M384.7 617.03H318.98" stroke="#333333" stroke-width="2" stroke-linecap="round" stroke-linejoin="round" opacity="1" fill="none"></path><path d="M321.61 994.83V757.11" stroke="#333333" stroke-width="2" stroke-linecap="round" stroke-linejoin="round" opacity="1" fill="none"></path><path d="M321.61 739.84V719.78" stroke="#333333" stroke-width="2" stroke-linecap="round" stroke-linejoin="round" opacity="1" fill="none"></path><path d="M217.24 624.64C228.52 633.42 242.71 638.69 258.23 638.69H275.5C296.73 638.69 316.05 626.39 324.98 607.07L365.23 519.68 303.61 489.82 261.6 580.28C261.6 562.57 247.25 548.23 229.54 548.23" stroke="#333333" stroke-width="2" stroke-linecap="round" stroke-linejoin="round" opacity="1" fill="none"></path></g><g><path d="M440.39 285.99C455.17 296.73 464.83 314.27 464.83 333.98 464.83 366.8 438.22 393.31 405.51 393.31 372.79 393.31 346.18 366.7 346.18 333.98 346.18 301.27 372.79 274.66 405.51 274.66 413.98 274.66 421.96 276.43 429.26 279.59" fill="#78c7e0" opacity="1" stroke-width="2" stroke="none"></path><path d="M440.39 285.99C455.17 296.73 464.83 314.27 464.83 333.98 464.83 366.8 438.22 393.31 405.51 393.31 372.79 393.31 346.18 366.7 346.18 333.98 346.18 301.27 372.79 274.66 405.51 274.66 413.98 274.66 421.96 276.43 429.26 279.59" stroke="#333333" stroke-width="2" stroke-linecap="round" stroke-linejoin="round" opacity="1" fill="none"></path><path d="M382.94 348.47L368.45 333.98 382.94 319.6" stroke="#333333" stroke-width="2" stroke-linecap="round" stroke-linejoin="round" opacity="1" fill="none"></path><path d="M428.07 319.6L442.56 333.98 428.07 348.47" stroke="#333333" stroke-width="2" stroke-linecap="round" stroke-linejoin="round" opacity="1" fill="none"></path><path d="M414.97 319.6L396.04 348.47" stroke="#333333" stroke-width="2" stroke-linecap="round" stroke-linejoin="round" opacity="1" fill="none"></path><path d="M405.51 393.31V472.15" stroke="#333333" stroke-width="2" stroke-linecap="round" stroke-linejoin="round" opacity="1" fill="none"></path></g><g><path d="M899.61 599.69H724.93L784.53 723.41H959.07L899.61 599.69Z" fill="#abedd8" stroke="#333333" stroke-width="2" stroke-linecap="round" stroke-linejoin="round" opacity="1"></path><path d="M779.01 712.09L1013.42 712.09V729.07L779.01 729.07V712.09Z" fill="#abedd8" stroke="#333333" stroke-width="2" stroke-linecap="round" stroke-linejoin="round" opacity="1"></path><path d="M839.31 666.22C833.61 666.22 828.98 661.59 828.98 655.89 828.98 650.18 833.61 645.55 839.31 645.55 845.01 645.55 849.64 650.18 849.64 655.89 849.64 661.59 845.01 666.22 839.31 666.22Z" fill="#ffffff" stroke="#333333" stroke-width="2" stroke-linecap="round" stroke-linejoin="round" opacity="1"></path></g><g><path d="M569.44 641.51C546.89 641.51 481.43 661.86 481.43 661.86L481.43 995.08H559.27 580.42 658.26V661.86C658.36 661.86 592.2 641.51 569.44 641.51Z" fill="#48466d" stroke="#333333" stroke-width="2" stroke-linecap="round" stroke-linejoin="round" opacity="1"></path><path d="M683.14 578.68L683.14 493.68C683.14 471.13 664.81 452.8 642.25 452.8H634.5 518.09C483.34 452.8 455.15 481 455.15 515.74V564.68C455.15 583.61 465.82 600.13 481.53 608.38V661.86H658.36V643.83L750.2 689.85 781.22 627.82 683.14 578.68Z" fill="#ffffff" stroke="#333333" stroke-width="2" stroke-linecap="round" stroke-linejoin="round" opacity="1"></path><path d="M529.97 421.28C529.97 421.28 560.78 394.19 594.32 415.34 601.26 419.67 615.87 433.97 610.83 457.33 604.19 473.34 588.38 484.52 569.95 484.52 537.42 484.52 515.97 450.58 529.97 421.28Z" fill="#ffffff" stroke="#333333" stroke-width="2" stroke-linecap="round" stroke-linejoin="round" opacity="1"></path><path d="M547.09 442.53V451.39" stroke="#333333" stroke-width="2" stroke-linecap="round" stroke-linejoin="round" opacity="1" fill="none"></path><path d="M558.97 451.39C558.97 454.71 556.35 457.33 553.03 457.33 549.71 457.33 547.09 454.71 547.09 451.39" stroke="#333333" stroke-width="2" stroke-linecap="round" stroke-linejoin="round" opacity="1" fill="none"></path><path d="M569.95 396.1C601.37 396.1 623.02 428.13 610.83 457.33 600.06 457.33 591.3 448.57 591.3 437.79V421.28H530.07C537.12 406.38 552.32 396.1 569.95 396.1Z" fill="#48466d" stroke="#333333" stroke-width="2" stroke-linecap="round" stroke-linejoin="round" opacity="1"></path><path d="M658.36 643.83V544.84" stroke="#333333" stroke-width="2" stroke-linecap="round" stroke-linejoin="round" opacity="1" fill="none"></path><path d="M658.36 533.56V512.72" stroke="#333333" stroke-width="2" stroke-linecap="round" stroke-linejoin="round" opacity="1" fill="none"></path><path d="M583.44 995.08L583.44 736.17" stroke="#333333" stroke-width="2" stroke-linecap="round" stroke-linejoin="round" opacity="1" fill="none"></path><path d="M481.53 608.38C488.38 612.01 496.13 614.02 504.39 614.02L620.3 614.22 620.4 544.84 508.12 544.74C518.19 544.74 526.34 536.58 526.34 526.51" stroke="#333333" stroke-width="2" stroke-linecap="round" stroke-linejoin="round" opacity="1" fill="none"></path></g><g><path d="M1148.77 995L1483.52 995" stroke="#333333" stroke-width="2" stroke-linecap="round" stroke-linejoin="round" opacity="1" fill="none"></path><path d="M116.48 995L1076.5 995" stroke="#333333" stroke-width="2" stroke-linecap="round" stroke-linejoin="round" opacity="1" fill="none"></path></g></svg>