<svg xmlns="http://www.w3.org/2000/svg" height="1000" width="1000" version="1.1" xmlns:xlink="http://www.w3.org/1999/xlink" xmlns:svgjs="http://svgjs.com/svgjs"><rect fill="#f3ebe9" width="1000" height="1000"></rect><g><path d="M295.7 277.88H680.93C706.15 277.88 726.63 298.36 726.63 323.58V699.56C726.63 724.78 706.15 745.26 680.93 745.26H295.7C270.48 745.26 250 724.78 250 699.56V323.58C250 298.36 270.48 277.88 295.7 277.88Z" fill="#353535" opacity="1" stroke-width="4" stroke="#000000"></path><path d="M319.07 254.74H704.3C729.52 254.74 750 275.22 750 300.44V676.42C750 701.64 729.52 722.12 704.3 722.12H319.07C293.85 722.12 273.37 701.64 273.37 676.42V300.44C273.37 275.22 293.85 254.74 319.07 254.74Z" fill="#61ccff" opacity="1" stroke-width="4" stroke="#000000"></path><path d="M415.2 450.25C425.38 450.25 433.71 458.58 433.71 468.76V508.1C433.71 518.28 425.38 526.61 415.2 526.61 405.02 526.61 396.69 518.28 396.69 508.1V468.76C396.81 458.58 405.02 450.25 415.2 450.25Z" stroke="#000000" stroke-width="4" stroke-linecap="round" stroke-linejoin="round" opacity="1" fill="none"></path><path d="M479.52 450.25C489.7 450.25 498.03 458.58 498.03 468.76V508.1C498.03 518.28 489.7 526.61 479.52 526.61 469.34 526.61 461.01 518.28 461.01 508.1V468.76C461.13 458.58 469.34 450.25 479.52 450.25Z" stroke="#000000" stroke-width="4" stroke-linecap="round" stroke-linejoin="round" opacity="1" fill="none"></path><path d="M332.37 450.25H350.88V526.61" stroke="#000000" stroke-width="4" stroke-linecap="round" stroke-linejoin="round" opacity="1" fill="none"></path><path d="M332.37 526.61H369.39" stroke="#000000" stroke-width="4" stroke-linecap="round" stroke-linejoin="round" opacity="1" fill="none"></path><path d="M525.34 450.25H543.85V526.61" stroke="#000000" stroke-width="4" stroke-linecap="round" stroke-linejoin="round" opacity="1" fill="none"></path><path d="M525.34 526.61H562.36" stroke="#000000" stroke-width="4" stroke-linecap="round" stroke-linejoin="round" opacity="1" fill="none"></path><path d="M608.17 450.25C618.35 450.25 626.68 458.58 626.68 468.76V508.1C626.68 518.28 618.35 526.61 608.17 526.61 597.99 526.61 589.66 518.28 589.66 508.1V468.76C589.66 458.58 597.99 450.25 608.17 450.25Z" stroke="#000000" stroke-width="4" stroke-linecap="round" stroke-linejoin="round" opacity="1" fill="none"></path><path d="M653.98 450.25H672.49V526.61" stroke="#000000" stroke-width="4" stroke-linecap="round" stroke-linejoin="round" opacity="1" fill="none"></path><path d="M653.98 526.61H691" stroke="#000000" stroke-width="4" stroke-linecap="round" stroke-linejoin="round" opacity="1" fill="none"></path><path d="M350.88 321.26C361.06 321.26 369.39 329.59 369.39 339.77V379.11C369.39 389.29 361.06 397.62 350.88 397.62 340.7 397.62 332.37 389.29 332.37 379.11V339.77C332.37 329.59 340.7 321.26 350.88 321.26Z" stroke="#000000" stroke-width="4" stroke-linecap="round" stroke-linejoin="round" opacity="1" fill="none"></path><path d="M479.52 321.26C489.7 321.26 498.03 329.59 498.03 339.77V379.11C498.03 389.29 489.7 397.62 479.52 397.62 469.34 397.62 461.01 389.29 461.01 379.11V339.77C461.13 329.59 469.34 321.26 479.52 321.26Z" stroke="#000000" stroke-width="4" stroke-linecap="round" stroke-linejoin="round" opacity="1" fill="none"></path><path d="M672.49 321.26C682.67 321.26 691 329.59 691 339.77V379.11C691 389.29 682.67 397.62 672.49 397.62 662.31 397.62 653.98 389.29 653.98 379.11V339.77C653.98 329.59 662.31 321.26 672.49 321.26Z" stroke="#000000" stroke-width="4" stroke-linecap="round" stroke-linejoin="round" opacity="1" fill="none"></path><path d="M396.81 321.26H415.32V397.62" stroke="#000000" stroke-width="4" stroke-linecap="round" stroke-linejoin="round" opacity="1" fill="none"></path><path d="M396.81 397.62H433.83" stroke="#000000" stroke-width="4" stroke-linecap="round" stroke-linejoin="round" opacity="1" fill="none"></path><path d="M525.34 321.26H543.85V397.62" stroke="#000000" stroke-width="4" stroke-linecap="round" stroke-linejoin="round" opacity="1" fill="none"></path><path d="M525.34 397.62H562.36" stroke="#000000" stroke-width="4" stroke-linecap="round" stroke-linejoin="round" opacity="1" fill="none"></path><path d="M589.66 321.26H608.17V397.62" stroke="#000000" stroke-width="4" stroke-linecap="round" stroke-linejoin="round" opacity="1" fill="none"></path><path d="M589.66 397.62H626.68" stroke="#000000" stroke-width="4" stroke-linecap="round" stroke-linejoin="round" opacity="1" fill="none"></path><path d="M612.1 579.25C622.28 579.25 630.61 587.58 630.61 597.76V637.09C630.61 647.27 622.28 655.6 612.1 655.6 601.92 655.6 593.59 647.27 593.59 637.09V597.76C593.59 587.58 601.92 579.25 612.1 579.25Z" stroke="#000000" stroke-width="4" stroke-linecap="round" stroke-linejoin="round" opacity="1" fill="none"></path><path d="M479.29 579.25C489.47 579.25 497.8 587.58 497.8 597.76V637.09C497.8 647.27 489.47 655.6 479.29 655.6 469.11 655.6 460.78 647.27 460.78 637.09V597.76C460.78 587.58 469.11 579.25 479.29 579.25Z" stroke="#000000" stroke-width="4" stroke-linecap="round" stroke-linejoin="round" opacity="1" fill="none"></path><path d="M545.7 579.25C555.88 579.25 564.21 587.58 564.21 597.76V637.09C564.21 647.27 555.88 655.6 545.7 655.6 535.52 655.6 527.19 647.27 527.19 637.09V597.76C527.19 587.58 535.52 579.25 545.7 579.25Z" stroke="#000000" stroke-width="4" stroke-linecap="round" stroke-linejoin="round" opacity="1" fill="none"></path><path d="M653.98 579.25H672.49V655.6" stroke="#000000" stroke-width="4" stroke-linecap="round" stroke-linejoin="round" opacity="1" fill="none"></path><path d="M653.98 655.6H691" stroke="#000000" stroke-width="4" stroke-linecap="round" stroke-linejoin="round" opacity="1" fill="none"></path><path d="M396.81 579.25H415.32V655.6" stroke="#000000" stroke-width="4" stroke-linecap="round" stroke-linejoin="round" opacity="1" fill="none"></path><path d="M396.81 655.6H433.83" stroke="#000000" stroke-width="4" stroke-linecap="round" stroke-linejoin="round" opacity="1" fill="none"></path><path d="M332.37 579.25H350.88V655.6" stroke="#000000" stroke-width="4" stroke-linecap="round" stroke-linejoin="round" opacity="1" fill="none"></path><path d="M332.37 655.6H369.39" stroke="#000000" stroke-width="4" stroke-linecap="round" stroke-linejoin="round" opacity="1" fill="none"></path></g></svg>