<svg xmlns="http://www.w3.org/2000/svg" height="1000" width="1000" version="1.1" xmlns:xlink="http://www.w3.org/1999/xlink" xmlns:svgjs="http://svgjs.com/svgjs"><rect fill="#e6e6d4" width="1000" height="1000"></rect><g><path d="M296.46 315.6H718.99C736.18 315.6 750 329.51 750 346.7V668.75C750 685.94 736.08 699.75 718.99 699.75H296.46C279.27 699.75 265.35 685.84 265.35 668.75V346.7C265.45 329.51 279.27 315.6 296.46 315.6Z" fill="#cecece00" opacity="0" stroke-width="4" stroke="#ffffff00"></path><path d="M281.11 300.25H703.64C720.83 300.25 734.65 314.16 734.65 331.35V653.4C734.65 670.59 720.73 684.4 703.64 684.4H281.11C263.92 684.4 250 670.49 250 653.4V331.35C250.1 314.16 263.92 300.25 281.11 300.25Z" fill="#00da99" opacity="1" stroke-width="4" stroke="#000000"></path><path d="M318.77 340.05H452.31C460.19 340.05 466.64 346.5 466.64 354.38V354.99C466.64 362.87 460.19 369.32 452.31 369.32H318.77C310.89 369.32 304.44 362.87 304.44 354.99V354.38C304.44 346.5 310.89 340.05 318.77 340.05Z" fill="#ffffff" opacity="1" stroke-width="4" stroke="#000000"></path><path d="M648.49 340.05H734.65V369.32H648.49C640.61 369.32 634.16 362.87 634.16 354.99V354.38C634.16 346.5 640.61 340.05 648.49 340.05Z" fill="#ffffff" opacity="1" stroke-width="4" stroke="#000000"></path><path d="M430.82 476.67H475.44C483.32 476.67 489.77 483.12 489.77 490.99V491.61C489.77 499.49 483.32 505.94 475.44 505.94H430.82C422.94 505.94 416.5 499.49 416.5 491.61V490.99C416.5 483.01 422.94 476.67 430.82 476.67Z" fill="#393e51" opacity="1" stroke-width="4" stroke="#000000"></path><path d="M386.82 613.28H431.44C439.32 613.28 445.76 619.73 445.76 627.61V628.22C445.76 636.1 439.32 642.55 431.44 642.55H386.82C378.94 642.55 372.49 636.1 372.49 628.22V627.61C372.49 619.63 378.94 613.28 386.82 613.28Z" fill="#01a7a3" opacity="1" stroke-width="4" stroke="#000000"></path><path d="M484.24 613.28H570.71C578.59 613.28 585.04 619.73 585.04 627.61V628.22C585.04 636.1 578.59 642.55 570.71 642.55H484.24C476.36 642.55 469.91 636.1 469.91 628.22V627.61C469.91 619.63 476.26 613.28 484.24 613.28Z" fill="#01a7a3" opacity="1" stroke-width="4" stroke="#000000"></path><path d="M430.82 544.92H583.2C591.08 544.92 597.52 551.37 597.52 559.25V559.86C597.52 567.74 591.08 574.19 583.2 574.19H430.82C422.94 574.19 416.5 567.74 416.5 559.86V559.25C416.5 551.37 422.94 544.92 430.82 544.92Z" fill="#ca6144" opacity="1" stroke-width="4" stroke="#000000"></path><path d="M318.77 408.31H452.31C460.19 408.31 466.64 414.76 466.64 422.64V423.25C466.64 431.13 460.19 437.58 452.31 437.58H318.77C310.89 437.58 304.44 431.13 304.44 423.25V422.64C304.44 414.76 310.89 408.31 318.77 408.31Z" fill="#ffe7a0" opacity="1" stroke-width="4" stroke="#000000"></path><path d="M522.92 408.1H590.56C598.44 408.1 604.89 414.55 604.89 422.43V423.05C604.89 430.93 598.44 437.37 590.56 437.37H522.92C515.04 437.37 508.6 430.93 508.6 423.05V422.43C508.6 414.45 515.04 408.1 522.92 408.1Z" fill="#ffe7a0" opacity="1" stroke-width="4" stroke="#000000"></path><path d="M281.11 300.25H339.03V684.4H281.11C263.92 684.4 250 670.49 250 653.4V331.35C250 314.16 263.92 300.25 281.11 300.25Z" fill="#00da99" opacity="1" stroke-width="4" stroke="#000000"></path><path d="M281.11 300.25H339.03V684.4H281.11C263.92 684.4 250 670.49 250 653.4V331.35C250 314.16 263.92 300.25 281.11 300.25Z" fill="#00805a" opacity="0.2" stroke-width="4" stroke="#000000"></path><path d="M734.65 388.25H340.05" stroke="#000000" stroke-width="4" stroke-linejoin="round" opacity="1" fill="none"></path><path d="M734.65 457.33H340.05" stroke="#000000" stroke-width="4" stroke-linejoin="round" opacity="1" fill="none"></path><path d="M734.65 527.43H340.05" stroke="#000000" stroke-width="4" stroke-linejoin="round" opacity="1" fill="none"></path><path d="M734.65 593.33H340.05" stroke="#000000" stroke-width="4" stroke-linejoin="round" opacity="1" fill="none"></path><path d="M339.03 300.25V684.4" stroke="#000000" stroke-width="4" stroke-linejoin="round" opacity="1" fill="none"></path><path d="M284.59 354.69H304.44" stroke="#000000" stroke-width="4" stroke-linecap="round" stroke-linejoin="round" opacity="1" fill="none"></path><path d="M284.59 422.74H304.44" stroke="#000000" stroke-width="4" stroke-linecap="round" stroke-linejoin="round" opacity="1" fill="none"></path><path d="M284.59 490.79H304.44" stroke="#000000" stroke-width="4" stroke-linecap="round" stroke-linejoin="round" opacity="1" fill="none"></path><path d="M284.59 559.86H304.44" stroke="#000000" stroke-width="4" stroke-linecap="round" stroke-linejoin="round" opacity="1" fill="none"></path><path d="M284.59 627.92H304.44" stroke="#000000" stroke-width="4" stroke-linecap="round" stroke-linejoin="round" opacity="1" fill="none"></path></g></svg>