<svg xmlns="http://www.w3.org/2000/svg" height="1200" width="1600" version="1.1" xmlns:xlink="http://www.w3.org/1999/xlink" xmlns:svgjs="http://svgjs.com/svgjs"><rect fill="#f3ebe9" width="1600" height="1200"></rect><g><path d="M362.97 672.13H528.77C550.81 672.13 565.45 690.02 561.41 712.2L522.28 927.25H276.48L315.64 712.07C319.65 690.02 340.92 672.13 362.97 672.13Z" fill="#cecdce" opacity="1" stroke-width="4" stroke="#000000"></path><path d="M364.23 665.2H530.03C552.07 665.2 566.71 683.09 562.67 705.27L560.04 719.75H314.24L316.88 705.27C320.91 683.09 342.18 665.2 364.23 665.2Z" fill="#ababab" opacity="1" stroke-width="4" stroke="#000000"></path><path d="M301.59 789.3H546.25" stroke="#000000" stroke-width="4" stroke-linecap="round" stroke-linejoin="round" opacity="1" fill="none"></path><path d="M289.14 857.71H533.8" stroke="#000000" stroke-width="4" stroke-linecap="round" stroke-linejoin="round" opacity="1" fill="none"></path><path d="M355.58 925.99L393.11 719.75" stroke="#000000" stroke-width="4" stroke-linecap="round" stroke-linejoin="round" opacity="1" fill="none"></path><path d="M443.64 925.99L481.17 719.75" stroke="#000000" stroke-width="4" stroke-linecap="round" stroke-linejoin="round" opacity="1" fill="none"></path><path d="M400.28 680.32L405.56 651.34" stroke="#000000" stroke-width="4" stroke-linecap="round" stroke-linejoin="round" opacity="1" fill="none"></path><path d="M488.35 680.32L493.62 651.34" stroke="#000000" stroke-width="4" stroke-linecap="round" stroke-linejoin="round" opacity="1" fill="none"></path><path d="M513.52 768.38C521.52 768.38 529.19 761.9 530.64 753.9 532.1 745.9 526.79 739.41 518.79 739.41 510.79 739.41 503.12 745.9 501.67 753.9 500.21 761.9 505.52 768.38 513.52 768.38Z" fill="#f2f2f2" opacity="1" stroke-width="4" stroke="#000000"></path><path d="M500.66 839.06C508.66 839.06 516.33 832.57 517.78 824.57 519.24 816.57 513.93 810.09 505.93 810.09 497.93 810.09 490.26 816.57 488.81 824.57 487.35 832.57 492.66 839.06 500.66 839.06Z" fill="#575757" opacity="1" stroke-width="4" stroke="#000000"></path><path d="M330.33 839.06C338.33 839.06 346 832.57 347.45 824.57 348.91 816.57 343.6 810.09 335.6 810.09 327.6 810.09 319.93 816.57 318.47 824.57 317.02 832.57 322.33 839.06 330.33 839.06Z" fill="#f2f2f2" opacity="1" stroke-width="4" stroke="#000000"></path><path d="M401.28 907.47C409.28 907.47 416.95 900.98 418.4 892.98 419.86 884.98 414.55 878.5 406.55 878.5 398.55 878.5 390.88 884.98 389.43 892.98 387.97 900.98 393.28 907.47 401.28 907.47Z" fill="#575757" opacity="1" stroke-width="4" stroke="#000000"></path></g><g><path d="M603.88 929.41L604.61 925.56C607.82 908.03 623.57 894.73 641.3 894.73H802.77L796.56 929.61H603.87L603.88 929.41Z" fill="#fe4f32" opacity="1" stroke-width="4" stroke="#000000"></path><path d="M665.54 929.41L698.49 746.36H891.18L866.66 882.4C861.74 909.18 837.8 929.41 810.63 929.41H665.54Z" fill="#fe4f32" opacity="1" stroke-width="4" stroke="#000000"></path><path d="M681.66 839.62L698.49 746.36H891.18L869.64 865.63 681.66 839.62Z" fill="#fe4f3200" opacity="0" stroke-width="4" stroke="#ffffff00"></path><path d="M531.04 823.43C501.76 823.43 476.2 812.07 459.11 791.45 441.83 770.45 435.24 742.7 440.48 712.83L495.92 405.88C506.84 344.99 565.48 295.27 626.37 295.27H1126.01C1155.3 295.27 1180.86 306.64 1197.95 327.26 1215.22 348.26 1221.82 376.01 1216.58 405.88L1161.13 712.83C1150.22 773.72 1091.58 823.43 1030.69 823.43H531.04V823.43Z" fill="#fe4f32" opacity="1" stroke-width="4" stroke="#000000"></path><path d="M493.82 684.7L541.13 422.26C549.03 378.9 590.71 343.64 634.07 343.64H1101.14C1121.96 343.64 1140.13 351.73 1152.45 366.38 1164.77 381.21 1169.56 401.06 1165.63 422.26L1118.13 684.7H493.82Z" fill="#ffffff" opacity="1" stroke-width="4" stroke="#000000"></path><path d="M788.63 781.04C781.7 781.04 775.63 778.54 771.58 773.72 762.55 763.51 764.97 746.36 777.16 735.57 783.15 730.17 790.99 726.9 798.51 726.9 805.44 726.9 811.51 729.4 815.56 734.22 824.59 744.43 822.17 761.58 809.98 772.37 803.79 777.96 796.15 781.04 788.63 781.04Z" fill="#ba3d28" opacity="1" stroke-width="4" stroke="#000000"></path><path d="M683.5 827.29H876.19" stroke="#000000" stroke-width="4" stroke-linecap="round" stroke-linejoin="round" opacity="1" fill="none"></path></g><g><path d="M723.66 405.45H974.2C976.56 405.45 978.82 405.91 980.84 406.82 982.86 407.72 984.61 409.05 985.97 410.72 987.34 412.39 988.31 414.38 988.81 416.56 989.32 418.75 989.36 421.09 988.93 423.46L953.63 617.44C953.2 619.8 952.31 622.14 951.01 624.33 949.71 626.51 948.02 628.5 946.04 630.17 944.06 631.84 941.84 633.17 939.49 634.08 937.14 634.98 934.71 635.45 932.35 635.45H681.81C679.44 635.45 677.19 634.98 675.17 634.08 673.15 633.17 671.4 631.84 670.03 630.17 668.67 628.5 667.7 626.51 667.19 624.33 666.69 622.14 666.65 619.8 667.08 617.44L702.38 423.46C702.81 421.09 703.7 418.75 705 416.56 706.3 414.38 707.99 412.39 709.97 410.72 711.94 409.05 714.17 407.72 716.52 406.82 718.87 405.91 721.3 405.45 723.66 405.45Z" fill="#231f20" opacity="1" stroke-width="4" stroke="#000000"></path><path d="M733.52 476.04H811.74C814.13 476.05 816.25 477 817.63 478.69 819.02 480.38 819.55 482.68 819.12 485.07 818.68 487.46 817.31 489.75 815.31 491.45 813.31 493.14 810.85 494.09 808.45 494.09H730.23C727.84 494.09 725.72 493.14 724.34 491.45 722.95 489.75 722.42 487.46 722.85 485.07 723.29 482.68 724.66 480.38 726.66 478.69 728.66 477 731.13 476.05 733.52 476.04Z" fill="#61ccff" opacity="1" stroke-width="4" stroke="#000000"></path><path d="M726.73 513.35H772.46C774.85 513.35 776.97 514.3 778.35 515.99 779.74 517.69 780.27 519.98 779.84 522.37 779.4 524.76 778.03 527.06 776.03 528.75 774.03 530.44 771.57 531.39 769.17 531.4H723.45C721.05 531.39 718.93 530.44 717.55 528.75 716.17 527.06 715.63 524.76 716.06 522.37 716.5 519.98 717.87 517.69 719.87 515.99 721.87 514.3 724.34 513.35 726.73 513.35Z" fill="#ffc930" opacity="1" stroke-width="4" stroke="#000000"></path><path d="M802.54 513.35H816.98C819.37 513.35 821.49 514.3 822.88 515.99 824.26 517.69 824.8 519.98 824.36 522.37 823.93 524.76 822.56 527.06 820.56 528.75 818.56 530.44 816.09 531.39 813.7 531.4H799.26C796.87 531.39 794.75 530.44 793.36 528.75 791.98 527.06 791.44 524.76 791.87 522.37 792.31 519.98 793.68 517.69 795.68 515.99 797.68 514.3 800.15 513.35 802.54 513.35Z" fill="#ffffff" opacity="1" stroke-width="4" stroke="#000000"></path><path d="M719.94 550.65H731.17C733.57 550.65 735.69 551.61 737.07 553.3 738.45 554.99 738.99 557.28 738.56 559.68 738.12 562.07 736.75 564.36 734.75 566.05 732.75 567.74 730.28 568.7 727.89 568.7H716.66C714.27 568.7 712.15 567.74 710.76 566.05 709.38 564.36 708.84 562.07 709.28 559.68 709.71 557.28 711.08 554.99 713.08 553.3 715.08 551.61 717.55 550.65 719.94 550.65Z" fill="#ffc930" opacity="1" stroke-width="4" stroke="#000000"></path><path d="M761.26 550.65H828.65C831.04 550.65 833.16 551.61 834.54 553.3 835.93 554.99 836.46 557.28 836.03 559.68 835.59 562.07 834.22 564.36 832.22 566.05 830.22 567.74 827.75 568.7 825.36 568.7H757.97C755.58 568.7 753.46 567.74 752.08 566.05 750.69 564.36 750.16 562.07 750.59 559.68 751.03 557.28 752.4 554.99 754.4 553.3 756.4 551.61 758.86 550.65 761.26 550.65Z" fill="#ffffff" opacity="1" stroke-width="4" stroke="#000000"></path><path d="M858.73 550.65H916.49C918.88 550.65 921 551.61 922.39 553.3 923.77 554.99 924.3 557.28 923.87 559.68 923.43 562.07 922.06 564.36 920.06 566.05 918.06 567.74 915.6 568.7 913.2 568.7H855.44C853.05 568.7 850.93 567.74 849.55 566.05 848.16 564.36 847.63 562.07 848.06 559.68 848.5 557.28 849.87 554.99 851.87 553.3 853.87 551.61 856.34 550.65 858.73 550.65Z" fill="#ffc930" opacity="1" stroke-width="4" stroke="#000000"></path><path d="M713.16 587.95H749.26C751.65 587.96 753.77 588.91 755.15 590.6 756.54 592.29 757.07 594.59 756.64 596.98 756.2 599.37 754.83 601.67 752.83 603.36 750.83 605.05 748.36 606 745.97 606H709.87C707.48 606 705.36 605.05 703.97 603.36 702.59 601.67 702.06 599.37 702.49 596.98 702.93 594.59 704.3 592.29 706.3 590.6 708.3 588.91 710.76 587.96 713.16 587.95Z" fill="#fe4f32" opacity="1" stroke-width="4" stroke="#000000"></path><path d="M779.34 587.95H787.36C789.75 587.96 791.87 588.91 793.26 590.6 794.64 592.29 795.18 594.59 794.74 596.98 794.31 599.37 792.94 601.67 790.94 603.36 788.94 605.05 786.47 606 784.08 606H776.05C773.66 606 771.54 605.05 770.16 603.36 768.77 601.67 768.24 599.37 768.67 596.98 769.11 594.59 770.48 592.29 772.48 590.6 774.48 588.91 776.95 587.96 779.34 587.95Z" fill="#ffc930" opacity="1" stroke-width="4" stroke="#000000"></path><path d="M817.44 587.95H865.18C867.57 587.96 869.69 588.91 871.07 590.6 872.46 592.29 872.99 594.59 872.56 596.98 872.12 599.37 870.75 601.67 868.75 603.36 866.75 605.05 864.29 606 861.89 606H814.16C811.77 606 809.65 605.05 808.26 603.36 806.88 601.67 806.35 599.37 806.78 596.98 807.22 594.59 808.59 592.29 810.59 590.6 812.59 588.91 815.05 587.96 817.44 587.95Z" fill="#61ccff" opacity="1" stroke-width="4" stroke="#000000"></path><path d="M723.66 405.45H974.2C976.56 405.45 978.82 405.91 980.84 406.82 982.86 407.72 984.61 409.05 985.97 410.72 987.34 412.39 988.31 414.38 988.81 416.56 989.32 418.75 989.36 421.09 988.93 423.46L985.49 442.35H698.94L702.38 423.46C702.81 421.09 703.7 418.75 705 416.56 706.3 414.38 707.99 412.39 709.97 410.72 711.94 409.05 714.17 407.72 716.52 406.82 718.87 405.91 721.3 405.45 723.66 405.45Z" fill="#61ccff" opacity="1" stroke-width="4" stroke="#000000"></path><path d="M960.91 431.96C965.25 431.96 969.41 428.44 970.2 424.1 970.99 419.76 968.11 416.24 963.77 416.24 959.43 416.24 955.27 419.76 954.48 424.1 953.69 428.44 956.57 431.96 960.91 431.96Z" stroke="#000000" stroke-width="4" stroke-linecap="round" stroke-linejoin="round" opacity="1" fill="none"></path><path d="M952.43 432.48L955.8 429.63" stroke="#000000" stroke-width="4" stroke-linecap="round" stroke-linejoin="round" opacity="1" fill="none"></path></g><g><path d="M1114.67 247.01H1253.01C1258.7 247.01 1264.34 248.13 1269.6 250.3 1274.86 252.48 1279.64 255.67 1283.66 259.7 1287.68 263.72 1290.88 268.5 1293.06 273.76 1295.23 279.02 1296.35 284.66 1296.35 290.35V347.22C1296.35 352.91 1295.23 358.55 1293.06 363.81 1290.88 369.07 1287.68 373.85 1283.66 377.87 1279.64 381.9 1274.86 385.09 1269.6 387.27 1264.34 389.45 1258.7 390.57 1253.01 390.56H1114.67C1108.99 390.57 1103.35 389.45 1098.08 387.27 1092.82 385.09 1088.05 381.9 1084.02 377.87 1080 373.85 1076.8 369.07 1074.62 363.81 1072.45 358.55 1071.33 352.91 1071.33 347.22V290.35C1071.33 284.66 1072.45 279.02 1074.62 273.76 1076.8 268.5 1080 263.72 1084.02 259.7 1088.05 255.67 1092.82 252.48 1098.08 250.3 1103.35 248.13 1108.99 247.01 1114.67 247.01Z" fill="#ffc930" opacity="1" stroke-width="4" stroke="#000000"></path><path d="M1151.01 349.83L1115.32 319.19 1151.01 288.72" stroke="#000000" stroke-width="4" stroke-linecap="round" stroke-linejoin="round" opacity="1" fill="none"></path><path d="M1216.51 288.72L1252.2 319.19 1216.51 349.83" stroke="#000000" stroke-width="4" stroke-linecap="round" stroke-linejoin="round" opacity="1" fill="none"></path><path d="M1194.03 286.77L1173.49 350.64" stroke="#000000" stroke-width="4" stroke-linecap="round" stroke-linejoin="round" opacity="1" fill="none"></path></g><g><path d="M1308.76 928.46H1081.72C1066.74 928.46 1056.87 916.61 1059.3 901.62L1083.17 754.22C1085.6 739.23 1099.77 727.38 1114.76 727.38H1341.8C1356.78 727.38 1366.65 739.23 1364.22 754.22L1340.35 901.62C1337.75 916.61 1323.92 928.46 1308.76 928.46Z" fill="#61ccff" opacity="1" stroke-width="4" stroke="#000000"></path><path d="M1323.97 783C1329.54 777.01 1329.5 768 1323.89 762.86 1318.26 757.74 1309.2 758.43 1303.62 764.41 1298.05 770.4 1298.09 779.41 1303.7 784.53 1309.33 789.67 1318.4 788.98 1323.97 783Z" fill="#ffffff" opacity="1" stroke-width="4" stroke="#000000"></path></g><g><path d="M197.72 957.74L1401.88 957.74V926.24L197.72 926.24V957.74Z" fill="#ffffff" opacity="1" stroke-width="4" stroke="#000000"></path></g></svg>