<svg xmlns="http://www.w3.org/2000/svg" height="1000" width="1000" version="1.1" xmlns:xlink="http://www.w3.org/1999/xlink" xmlns:svgjs="http://svgjs.com/svgjs"><rect fill="#effaff" width="1000" height="1000"></rect><g><path d="M381.67 456.64C397.73 456.64 410.74 443.63 410.74 427.57 410.74 411.52 397.73 398.5 381.67 398.5 365.62 398.5 352.6 411.52 352.6 427.57 352.6 443.63 365.62 456.64 381.67 456.64Z" fill="#abedd8" stroke="#333333" stroke-width="2" stroke-linecap="round" stroke-linejoin="round" opacity="1"></path><path d="M463.49 420.1H401.12C398.12 420.1 395.24 421.29 393.12 423.41 391 425.53 389.81 428.41 389.81 431.4 389.81 434.4 391 437.28 393.12 439.39 395.24 441.51 398.12 442.71 401.12 442.71H372.6C369.27 442.71 366.07 444.03 363.72 446.38 361.36 448.74 360.04 451.93 360.04 455.26 360.04 458.59 361.36 461.79 363.72 464.14 366.07 466.5 369.27 467.82 372.6 467.82H472.44C478.76 467.82 484.83 465.31 489.31 460.83 493.78 456.35 496.3 450.29 496.3 443.96V443.96C496.3 437.63 493.78 431.55 489.31 427.08 484.83 422.6 478.76 420.09 472.44 420.09" fill="#ffffff" opacity="1" stroke-width="2" stroke="none"></path><path d="M463.49 420.1H401.12C398.12 420.1 395.24 421.29 393.12 423.41 391 425.53 389.81 428.41 389.81 431.4 389.81 434.4 391 437.28 393.12 439.39 395.24 441.51 398.12 442.71 401.12 442.71H372.6C369.27 442.71 366.07 444.03 363.72 446.38 361.36 448.74 360.04 451.93 360.04 455.26 360.04 458.59 361.36 461.79 363.72 464.14 366.07 466.5 369.27 467.82 372.6 467.82H472.44C478.76 467.82 484.83 465.31 489.31 460.83 493.78 456.35 496.3 450.29 496.3 443.96V443.96C496.3 437.63 493.78 431.55 489.31 427.08 484.83 422.6 478.76 420.09 472.44 420.09" stroke="#333333" stroke-width="2" stroke-linecap="round" stroke-linejoin="round" opacity="1" fill="none"></path><path d="M417.72 442.71H426.39" stroke="#333333" stroke-width="2" stroke-linecap="round" stroke-linejoin="round" opacity="1" fill="none"></path><path d="M401.12 442.71H414.15" stroke="#333333" stroke-width="2" stroke-linecap="round" stroke-linejoin="round" opacity="1" fill="none"></path><path d="M573.79 557.86C563.24 577.02 545.6 591.3 524.66 597.63 503.71 603.95 481.12 601.83 461.71 591.72 442.32 581.59 427.65 564.28 420.85 543.49 414.05 522.69 415.66 500.06 425.34 480.43 435.02 460.8 451.99 445.75 472.63 438.48 493.26 431.22 515.93 432.31 535.77 441.55 555.61 450.78 571.05 467.41 578.78 487.88 586.51 508.35 585.92 531.03 577.14 551.07" fill="#48466d" opacity="1" stroke-width="2" stroke="none"></path><path d="M573.79 557.86C563.24 577.02 545.6 591.3 524.66 597.63 503.71 603.95 481.12 601.83 461.71 591.72 442.32 581.59 427.65 564.28 420.85 543.49 414.05 522.69 415.66 500.06 425.34 480.43 435.02 460.8 451.99 445.75 472.63 438.48 493.26 431.22 515.93 432.31 535.77 441.55 555.61 450.78 571.05 467.41 578.78 487.88 586.51 508.35 585.92 531.03 577.14 551.07" stroke="#333333" stroke-width="2" stroke-linecap="round" stroke-linejoin="round" opacity="1" fill="none"></path><path d="M500 433.14V601.5" stroke="#333333" stroke-width="2" stroke-linecap="round" stroke-linejoin="round" opacity="1" fill="none"></path><path d="M464.15 517.32H415.82" stroke="#333333" stroke-width="2" stroke-linecap="round" stroke-linejoin="round" opacity="1" fill="none"></path><path d="M584.18 517.32H473.79" stroke="#333333" stroke-width="2" stroke-linecap="round" stroke-linejoin="round" opacity="1" fill="none"></path><path d="M500 601.5C524.57 601.5 544.48 563.81 544.48 517.32 544.48 470.83 524.57 433.14 500 433.14 475.43 433.14 455.52 470.83 455.52 517.32 455.52 563.81 475.43 601.5 500 601.5Z" stroke="#333333" stroke-width="2" stroke-linecap="round" stroke-linejoin="round" opacity="1" fill="none"></path><path d="M554.05 452.91C543.35 466.8 523.15 476.16 500 476.16 476.8 476.16 456.57 466.76 445.89 452.84" stroke="#333333" stroke-width="2" stroke-linecap="round" stroke-linejoin="round" opacity="1" fill="none"></path><path d="M445.89 581.81C447.06 580.29 448.32 578.83 449.67 577.47 460.97 565.96 479.31 558.48 500 558.48 523.2 558.48 543.43 567.88 554.11 581.81" stroke="#333333" stroke-width="2" stroke-linecap="round" stroke-linejoin="round" opacity="1" fill="none"></path><path d="M585.87 517.32H678.3" stroke="#333333" stroke-width="2" stroke-linecap="round" stroke-linejoin="round" opacity="1" fill="none"></path><path d="M321.93 517.32H414.13" stroke="#333333" stroke-width="2" stroke-linecap="round" stroke-linejoin="round" opacity="1" fill="none"></path><path d="M288.31 555.64C309.47 555.64 326.62 538.48 326.62 517.32 326.62 496.16 309.47 479.01 288.31 479.01 267.15 479.01 250 496.16 250 517.32 250 538.48 267.15 555.64 288.31 555.64Z" fill="#3d84a8" stroke="#333333" stroke-width="2" stroke-linecap="round" stroke-linejoin="round" opacity="1"></path><path d="M274.23 517.32L298.49 504.1" stroke="#333333" stroke-width="2" stroke-linecap="round" stroke-linejoin="round" opacity="1" fill="none"></path><path d="M274.23 517.32L298.49 530.54" stroke="#333333" stroke-width="2" stroke-linecap="round" stroke-linejoin="round" opacity="1" fill="none"></path><path d="M274.23 523.07C277.4 523.07 279.97 520.49 279.97 517.32 279.97 514.14 277.4 511.57 274.23 511.57 271.05 511.57 268.48 514.14 268.48 517.32 268.48 520.49 271.05 523.07 274.23 523.07Z" fill="#78c7e0" stroke="#333333" stroke-width="2" stroke-linecap="round" stroke-linejoin="round" opacity="1"></path><path d="M298.49 509.85C301.67 509.85 304.24 507.28 304.24 504.1 304.24 500.93 301.67 498.35 298.49 498.35 295.32 498.35 292.75 500.93 292.75 504.1 292.75 507.28 295.32 509.85 298.49 509.85Z" fill="#78c7e0" stroke="#333333" stroke-width="2" stroke-linecap="round" stroke-linejoin="round" opacity="1"></path><path d="M298.49 536.29C301.67 536.29 304.24 533.72 304.24 530.54 304.24 527.37 301.67 524.79 298.49 524.79 295.32 524.79 292.75 527.37 292.75 530.54 292.75 533.72 295.32 536.29 298.49 536.29Z" fill="#78c7e0" stroke="#333333" stroke-width="2" stroke-linecap="round" stroke-linejoin="round" opacity="1"></path><path d="M711.69 555.64C732.85 555.64 750 538.48 750 517.32 750 496.16 732.85 479.01 711.69 479.01 690.53 479.01 673.37 496.16 673.37 517.32 673.37 538.48 690.53 555.64 711.69 555.64Z" fill="#3d84a8" stroke="#333333" stroke-width="2" stroke-linecap="round" stroke-linejoin="round" opacity="1"></path><path d="M711.69 513.24C715.96 513.24 719.42 509.78 719.42 505.5 719.42 501.23 715.96 497.77 711.69 497.77 707.41 497.77 703.95 501.23 703.95 505.5 703.95 509.78 707.41 513.24 711.69 513.24Z" fill="#78c7e0" stroke="#333333" stroke-width="2" stroke-linecap="round" stroke-linejoin="round" opacity="1"></path><path d="M726.3 536.88H697.14C697.12 536.88 697.12 536.88 697.11 536.87 697.11 536.87 697.1 536.87 697.1 536.86 697.09 536.86 697.08 536.85 697.08 536.84 697.08 536.84 697.08 536.83 697.08 536.82V533.45C697.08 531.53 697.45 529.63 698.19 527.86 698.92 526.09 700 524.48 701.35 523.12 702.71 521.77 704.32 520.69 706.1 519.96 707.87 519.22 709.77 518.84 711.69 518.84V518.84C715.56 518.84 719.28 520.38 722.02 523.12 724.76 525.86 726.3 529.58 726.3 533.45V536.88H726.3Z" fill="#78c7e0" stroke="#333333" stroke-width="2" stroke-linecap="round" stroke-linejoin="round" opacity="1"></path><path d="M633.23 564.18H554.48C552.85 564.18 551.22 564.5 549.71 565.13 548.21 565.75 546.83 566.67 545.68 567.83 544.52 568.99 543.6 570.36 542.97 571.87 542.35 573.38 542.02 575 542.02 576.63V576.63C542.02 578.27 542.35 579.89 542.97 581.4 543.6 582.92 544.52 584.29 545.68 585.44 546.83 586.6 548.21 587.52 549.71 588.14 551.22 588.77 552.85 589.09 554.48 589.09H569.45C568.68 589.09 567.92 589.24 567.2 589.54 566.49 589.83 565.84 590.27 565.3 590.81 564.75 591.36 564.32 592 564.02 592.72 563.73 593.43 563.58 594.19 563.58 594.97V594.97C563.58 596.52 564.2 598.02 565.3 599.12 566.4 600.22 567.9 600.84 569.45 600.84H607.04C608.6 600.84 610.1 600.22 611.2 599.12 612.3 598.02 612.92 596.52 612.92 594.97V594.97C612.92 593.41 612.3 591.91 611.2 590.81 610.1 589.71 608.6 589.09 607.04 589.09H639.7C641.34 589.09 642.96 588.77 644.47 588.14 645.98 587.52 647.35 586.6 648.51 585.44 649.67 584.29 650.59 582.92 651.21 581.4 651.84 579.89 652.16 578.27 652.16 576.63V576.63C652.16 575 651.84 573.38 651.21 571.87 650.59 570.36 649.67 568.99 648.51 567.83 647.35 566.67 645.98 565.75 644.47 565.13 642.96 564.5 641.34 564.18 639.7 564.18" fill="#ffffff" opacity="1" stroke-width="2" stroke="none"></path><path d="M633.23 564.18H554.48C552.85 564.18 551.22 564.5 549.71 565.13 548.21 565.75 546.83 566.67 545.68 567.83 544.52 568.99 543.6 570.36 542.97 571.87 542.35 573.38 542.02 575 542.02 576.63V576.63C542.02 578.27 542.35 579.89 542.97 581.4 543.6 582.92 544.52 584.29 545.68 585.44 546.83 586.6 548.21 587.52 549.71 588.14 551.22 588.77 552.85 589.09 554.48 589.09H569.45C568.68 589.09 567.92 589.24 567.2 589.54 566.49 589.83 565.84 590.27 565.3 590.81 564.75 591.36 564.32 592 564.02 592.72 563.73 593.43 563.58 594.19 563.58 594.97V594.97C563.58 596.52 564.2 598.02 565.3 599.12 566.4 600.22 567.9 600.84 569.45 600.84H607.04C608.6 600.84 610.1 600.22 611.2 599.12 612.3 598.02 612.92 596.52 612.92 594.97V594.97C612.92 593.41 612.3 591.91 611.2 590.81 610.1 589.71 608.6 589.09 607.04 589.09H639.7C641.34 589.09 642.96 588.77 644.47 588.14 645.98 587.52 647.35 586.6 648.51 585.44 649.67 584.29 650.59 582.92 651.21 581.4 651.84 579.89 652.16 578.27 652.16 576.63V576.63C652.16 575 651.84 573.38 651.21 571.87 650.59 570.36 649.67 568.99 648.51 567.83 647.35 566.67 645.98 565.75 644.47 565.13 642.96 564.5 641.34 564.18 639.7 564.18" stroke="#333333" stroke-width="2" stroke-linecap="round" stroke-linejoin="round" opacity="1" fill="none"></path><path d="M569.19 589.09H576.23" stroke="#333333" stroke-width="2" stroke-linecap="round" stroke-linejoin="round" opacity="1" fill="none"></path><path d="M598.24 589.09H594.72" stroke="#333333" stroke-width="2" stroke-linecap="round" stroke-linejoin="round" opacity="1" fill="none"></path><path d="M607.04 589.09H601.61" stroke="#333333" stroke-width="2" stroke-linecap="round" stroke-linejoin="round" opacity="1" fill="none"></path><path d="M606.43 432.9C606.42 432.91 606.41 432.93 606.41 432.95 606.4 432.96 606.41 432.97 606.41 432.99L615.73 452.78C615.75 452.81 615.77 452.81 615.78 452.78L643.11 398.55C643.12 398.52 643.11 398.52 643.09 398.54L606.43 432.9Z" fill="#46cdcf" stroke="#333333" stroke-width="2" stroke-linecap="round" stroke-linejoin="round" opacity="1"></path><path d="M612.53 434.46C612.52 434.46 612.52 434.46 612.51 434.46 612.5 434.46 612.5 434.45 612.5 434.44 612.49 434.43 612.49 434.43 612.5 434.42 612.5 434.42 612.5 434.41 612.51 434.41L643.09 398.54C643.11 398.52 643.13 398.52 643.12 398.56L635.49 439.8C635.49 439.81 635.49 439.81 635.49 439.82 635.48 439.82 635.48 439.83 635.47 439.83 635.46 439.84 635.46 439.84 635.45 439.84 635.44 439.84 635.44 439.84 635.43 439.84L612.53 434.46Z" fill="#46cdcf" stroke="#333333" stroke-width="2" stroke-linecap="round" stroke-linejoin="round" opacity="1"></path><path d="M643.08 398.53C643.11 398.51 643.11 398.52 643.09 398.54L608.76 433.16C608.74 433.17 608.73 433.18 608.71 433.18 608.69 433.19 608.68 433.19 608.66 433.19L588.48 430.96C588.45 430.95 588.45 430.94 588.48 430.92L643.08 398.53Z" fill="#46cdcf" stroke="#333333" stroke-width="2" stroke-linecap="round" stroke-linejoin="round" opacity="1"></path><path d="M612.51 434.41C612.49 434.43 612.48 434.47 612.48 434.51L615.75 452.77C615.75 452.8 615.75 452.81 615.73 452.78L606.41 432.99C606.41 432.97 606.4 432.96 606.41 432.94 606.41 432.92 606.42 432.91 606.43 432.9L643.09 398.53C643.11 398.52 643.11 398.52 643.09 398.54L612.51 434.41Z" fill="#46cdcf" stroke="#333333" stroke-width="2" stroke-linecap="round" stroke-linejoin="round" opacity="1"></path><path d="M415.36 545.94C415.36 545.94 386.86 575.54 404.78 593.92 437.53 627.51 553.66 532.09 606.39 452.62" stroke="#333333" stroke-width="2" stroke-linecap="round" stroke-linejoin="round" opacity="1" fill="none"></path></g></svg>